<svg width="8" height="8" viewBox="0 0 9 8" fill="none" xmlns="http://www.w3.org/2000/svg">
    <path d="M8.70692 0.792787C8.89439 0.980314 8.99971 1.23462 8.99971 1.49979C8.99971 1.76495 8.89439 2.01926 8.70692 2.20679L3.70692 7.20679C3.51939 7.39426 3.26508 7.49957 2.99992 7.49957C2.73475 7.49957 2.48045 7.39426 2.29292 7.20679L0.292919 5.20679C0.110761 5.01818 0.00996641 4.76558 0.0122448 4.50339C0.0145233 4.24119 0.119692 3.99038 0.3051 3.80497C0.490508 3.61956 0.741321 3.51439 1.00352 3.51211C1.26571 3.50983 1.51832 3.61063 1.70692 3.79279L2.99992 5.08579L7.29292 0.792787C7.48045 0.605316 7.73475 0.5 7.99992 0.5C8.26508 0.5 8.51939 0.605316 8.70692 0.792787Z" fill="white"/>
</svg>
