<svg width="86" height="27" viewBox="0 0 86 27" fill="none" xmlns="http://www.w3.org/2000/svg">
<g clip-path="url(#clip0_502_1081)">
<path d="M11.3627 1.22119L7.68608 1.77374L0.991699 13.6536L7.68608 25.5122L11.3627 26.0648L4.222 13.6536L11.3627 1.22119ZM20.7561 1.22119L24.4327 1.77374L31.127 13.6536L24.4327 25.5122L20.7561 26.0648L27.8967 13.6536L20.7561 1.22119Z" fill="black"/>
<path d="M11.3628 1.22124L16.0595 0.689941V13.6537H4.22217L11.3628 1.22124Z" fill="#F3F3F3"/>
<path d="M11.3628 26.065L16.0595 26.5963V13.6538H4.22217L11.3628 26.065Z" fill="#D9D9D9"/>
<path d="M20.7563 26.065L16.0596 26.5963V13.6538H27.8969L20.7563 26.065Z" fill="#BCBCBC"/>
<path d="M20.7563 1.22124L16.0596 0.689941V13.6537H27.8969L20.7563 1.22124Z" fill="#E9E9E9"/>
<path d="M43.5384 11.5497C42.7307 11.7423 41.9036 11.8421 41.0732 11.8472C40.4746 11.8706 39.8768 11.7841 39.3093 11.5922C38.8793 11.4182 38.515 11.1134 38.2679 10.7209C38.0061 10.29 37.826 9.81447 37.7366 9.31824C37.6426 8.64951 37.6 7.97455 37.6091 7.2993C37.6091 5.59914 37.8429 4.40903 38.3317 3.75022C38.8205 3.09141 39.6918 2.73012 40.9669 2.73012C41.8422 2.75089 42.7121 2.87211 43.5597 3.09141L43.4959 4.51529C42.793 4.40104 42.0828 4.33712 41.3707 4.32402C40.7969 4.32402 40.3931 4.40903 40.1594 4.55779C39.9256 4.70656 39.7343 4.98283 39.6281 5.40787C39.5218 5.83291 39.4368 6.55548 39.4368 7.57558C39.4368 8.59567 39.5643 9.29699 39.7981 9.70078C40.0318 10.1046 40.5206 10.2746 41.222 10.2746C41.9833 10.2783 42.7436 10.2215 43.4959 10.1046L43.5384 11.5497ZM45.0686 5.96043C45.5361 5.36537 46.3012 5.06784 47.3638 5.06784C48.4264 5.06784 49.1915 5.36537 49.659 5.96043C50.1265 6.55548 50.3603 7.38431 50.3603 8.44691C50.3603 10.7209 49.3615 11.8472 47.3638 11.8472C45.3661 11.8472 44.3885 10.7209 44.3885 8.44691C44.3885 7.38431 44.6223 6.55548 45.0686 5.96043ZM46.4287 9.9133C46.5987 10.2321 46.9175 10.3808 47.3638 10.3808C47.8101 10.3808 48.1501 10.2321 48.3201 9.9133C48.5269 9.45324 48.6216 8.95068 48.5964 8.44691C48.6241 7.94984 48.5292 7.45359 48.3201 7.00177C48.1501 6.70425 47.8313 6.53423 47.3638 6.53423C47.1799 6.51817 46.9952 6.55336 46.8302 6.63589C46.6651 6.71842 46.5262 6.84507 46.4287 7.00177C46.2374 7.2993 46.1524 7.7881 46.1524 8.44691C46.1524 9.10572 46.2374 9.59452 46.4287 9.9133ZM57.1185 2.62386V11.6985H55.397V11.4222C54.9126 11.6832 54.3744 11.8286 53.8244 11.8472C52.8893 11.8472 52.2305 11.5922 51.8692 11.0397C51.5079 10.4871 51.3167 9.63702 51.3167 8.44691C51.3167 7.2568 51.5292 6.42797 51.9755 5.87542C52.4218 5.32287 53.0806 5.06784 53.9944 5.06784C54.3798 5.0793 54.7636 5.12194 55.142 5.19535L55.397 5.25911V2.62386H57.1185ZM55.2058 10.1471L55.397 10.1046V6.70425C54.9764 6.62586 54.5498 6.5832 54.1219 6.57673C53.4206 6.57673 53.0806 7.19304 53.0806 8.44691C53.0806 9.10572 53.1443 9.59452 53.3143 9.8708C53.3831 10.0114 53.4933 10.1275 53.6301 10.2035C53.7669 10.2795 53.9237 10.3117 54.0794 10.2958C54.4598 10.2959 54.8385 10.2459 55.2058 10.1471ZM60.4763 10.0621C60.7235 10.2569 61.0332 10.3551 61.3476 10.3383C62.1552 10.3383 62.8565 10.2958 63.4941 10.2533L63.8553 10.2108V11.4859C62.9823 11.725 62.0827 11.8535 61.1776 11.8685C60.2 11.8685 59.4774 11.5922 59.0524 11.0822C58.6273 10.5721 58.3936 9.72203 58.3936 8.55317C58.3936 6.2367 59.3287 5.06784 61.2413 5.06784C63.154 5.06784 64.0679 6.04543 64.0679 8.00062L63.9403 9.21198H60.1575C60.143 9.36855 60.1642 9.52637 60.2194 9.67359C60.2746 9.82082 60.3624 9.95363 60.4763 10.0621ZM62.389 7.87311C62.389 7.36306 62.3039 7.00177 62.1339 6.78925C61.9852 6.59799 61.6876 6.49173 61.2838 6.49173C60.8801 6.49173 60.5825 6.59799 60.4125 6.81051C60.2425 7.02303 60.1575 7.38431 60.1362 7.87311H62.389ZM70.2309 6.70425V11.6985H68.4883V6.70425H67.8082V5.21661H68.4883V4.94033C68.4883 4.00524 68.637 3.36768 68.9133 3.0064C69.1896 2.64511 69.6784 2.4751 70.401 2.4751C70.8005 2.4851 71.1985 2.52774 71.5911 2.60261L71.8673 2.64511V4.069L70.911 4.02649C70.8119 4.01632 70.7117 4.03034 70.6192 4.06735C70.5267 4.10437 70.4445 4.16327 70.3797 4.23901C70.2784 4.46571 70.2346 4.7139 70.2522 4.96158V5.21661H71.8248V6.70425H70.2309ZM73.1212 5.96043C73.5675 5.36537 74.3326 5.06784 75.3952 5.06784C76.4578 5.06784 77.2441 5.36537 77.6904 5.96043C78.1367 6.55548 78.3917 7.38431 78.3917 8.44691C78.3917 10.7209 77.3929 11.8472 75.3952 11.8472C73.3975 11.8472 72.4199 10.7209 72.4199 8.44691C72.4199 7.38431 72.6537 6.55548 73.1212 5.96043ZM74.4601 9.9133C74.6301 10.2321 74.9489 10.3808 75.3952 10.3808C75.8415 10.3808 76.1815 10.2321 76.3515 9.9133C76.5215 9.59452 76.6278 9.10572 76.6278 8.44691C76.6278 7.7881 76.5428 7.2993 76.3515 7.00177C76.1603 6.70425 75.8627 6.55548 75.3952 6.55548C74.9276 6.55548 74.6301 6.70425 74.4601 7.00177C74.2901 7.2993 74.1838 7.7881 74.1838 8.44691C74.1838 9.10572 74.2688 9.59452 74.4601 9.9133ZM79.6456 11.6985V5.21661H81.367V5.91792C82.0041 5.51089 82.7097 5.22287 83.4497 5.06784V6.81051C82.8394 6.93292 82.2363 7.089 81.6433 7.27805L81.3882 7.36306V11.6985H79.6456ZM39.7343 21.7082V24.6622H37.9491V15.8426H41.3707C43.4534 15.8426 44.4735 16.8202 44.4735 18.7541C44.4735 19.9017 44.0485 20.7518 43.1771 21.2831L44.431 24.6622H42.4758L41.4557 21.7082H39.7343ZM42.3483 19.7955C42.5628 19.4922 42.6677 19.125 42.6458 18.7541C42.6643 18.3935 42.551 18.0385 42.3271 17.7553C42.2075 17.6227 42.0591 17.5193 41.8933 17.453C41.7275 17.3867 41.5488 17.3592 41.3707 17.3728H39.7343V20.178H41.392C41.57 20.1915 41.7488 20.1641 41.9146 20.0978C42.0803 20.0315 42.2287 19.9281 42.3483 19.7955ZM46.0674 18.9029C46.535 18.3291 47.3 18.0316 48.3626 18.0316C49.4252 18.0316 50.2116 18.3291 50.6578 18.9029C51.1041 19.4767 51.3379 20.3268 51.3379 21.4106C51.3379 23.6846 50.3603 24.811 48.3626 24.811C46.3649 24.811 45.3873 23.6846 45.3873 21.4106C45.3873 20.3268 45.6211 19.498 46.0674 18.9029ZM47.4063 22.877C47.5105 23.0322 47.6538 23.1571 47.8217 23.2392C47.9896 23.3213 48.1762 23.3576 48.3626 23.3446C48.8302 23.3446 49.149 23.1745 49.319 22.877C49.5258 22.417 49.6205 21.9144 49.5952 21.4106C49.623 20.9067 49.5282 20.4035 49.319 19.9442C49.149 19.6467 48.8302 19.498 48.3626 19.498C48.1779 19.4804 47.9919 19.5125 47.8237 19.591C47.6556 19.6694 47.5115 19.7914 47.4063 19.9442C47.2363 20.263 47.1513 20.7306 47.1513 21.4106C47.1513 22.0907 47.2363 22.5582 47.4063 22.877ZM54.3557 24.6622H52.613V18.1803H54.3344V18.5416C54.7932 18.2449 55.3196 18.0695 55.8646 18.0316C56.5659 18.0316 57.0972 18.2228 57.4797 18.6266C58.1532 18.2608 58.9027 18.0571 59.6687 18.0316C60.5188 18.0316 61.1138 18.2653 61.4539 18.7754C61.7939 19.2854 61.9427 20.0505 61.9427 21.1556V24.6622H60.2V21.1981C60.2271 20.78 60.1693 20.3607 60.03 19.9655C59.9623 19.8362 59.857 19.7305 59.728 19.6622C59.599 19.5939 59.4524 19.5663 59.3074 19.583C58.9617 19.5977 58.6191 19.6548 58.2873 19.753L58.0961 19.8167C58.1386 20.4755 58.1598 20.9643 58.1598 21.3044V24.6622H56.4171V21.3256C56.438 20.8659 56.3805 20.406 56.2471 19.9655C56.1409 19.7105 55.8858 19.583 55.5033 19.583C55.1636 19.5878 54.8266 19.6451 54.5045 19.753L54.3557 19.8167V24.6622ZM68.4458 20.1993V22.8983C68.4444 23.0467 68.481 23.193 68.552 23.3233C68.587 23.3757 68.6345 23.4187 68.6901 23.4483C68.7457 23.478 68.8078 23.4934 68.8708 23.4933L68.8283 24.811C68.472 24.8227 68.1156 24.7942 67.7657 24.7259C67.4852 24.6504 67.2194 24.5283 66.9794 24.3647C66.3826 24.6529 65.7294 24.8054 65.0667 24.811C63.7278 24.811 63.0478 24.1096 63.0478 22.6858C63.0478 21.9915 63.239 21.5027 63.6216 21.2194C63.9829 20.9218 64.5567 20.7518 65.3217 20.7093L66.7031 20.6031V20.1993C66.7131 20.1005 66.7032 20.0007 66.674 19.9058C66.6448 19.8109 66.5969 19.7228 66.5331 19.6467C66.3578 19.5301 66.1476 19.4775 65.938 19.498L63.5153 19.6042L63.4515 18.3928C64.309 18.1483 65.1952 18.0196 66.0868 18.0103C66.9369 18.0103 67.5319 18.2016 67.8932 18.5416C68.2545 18.8816 68.4458 19.4342 68.4458 20.1993ZM65.5343 21.9207C65.0455 21.9632 64.8117 22.2182 64.8117 22.6858C64.8117 23.1533 65.0242 23.4083 65.4492 23.4083C65.8094 23.3988 66.1667 23.3416 66.5118 23.2383L66.7031 23.1958V21.8144L65.5343 21.9207ZM71.8461 24.6622H70.1034V18.1803H71.8248V18.5416C72.3096 18.2337 72.8664 18.0579 73.44 18.0316C74.3184 18.0316 74.9135 18.2866 75.2252 18.7966C75.5652 19.3067 75.7352 20.093 75.7352 21.1344V24.6622H73.9925V21.1981C74.0147 20.7784 73.9496 20.3587 73.8013 19.9655C73.6738 19.7105 73.3975 19.583 73.015 19.583C72.6671 19.5733 72.3208 19.6311 71.9949 19.753L71.8461 19.8167V24.6622ZM77.2654 17.3515V15.5876H79.008V17.3515H77.2654ZM77.2654 24.6622V18.1803H79.008V24.6622H77.2654ZM85.5749 20.1993V22.8983C85.5735 23.0467 85.6101 23.193 85.6811 23.3233C85.7162 23.3757 85.7636 23.4187 85.8192 23.4483C85.8748 23.478 85.9369 23.4934 85.9999 23.4933L85.9574 24.811C85.6012 24.8227 85.2447 24.7942 84.8948 24.7259C84.6076 24.6508 84.3347 24.5287 84.0872 24.3647C83.4987 24.6546 82.8519 24.8072 82.1958 24.811C80.8569 24.811 80.1769 24.1096 80.1769 22.6858C80.1769 21.9844 80.3681 21.4956 80.7294 21.2194C81.0907 20.9431 81.6858 20.7518 82.4508 20.7093L83.8322 20.6031V20.1993C83.8422 20.1005 83.8323 20.0007 83.8031 19.9058C83.7739 19.8109 83.726 19.7228 83.6622 19.6467C83.4869 19.5301 83.2767 19.4775 83.0672 19.498L80.6444 19.6042L80.5807 18.3928C81.4381 18.1483 82.3244 18.0196 83.2159 18.0103C84.066 18.0103 84.661 18.2016 85.0223 18.5416C85.3836 18.8816 85.5749 19.4342 85.5749 20.1993ZM82.6634 21.9207C82.1746 21.9632 81.9408 22.2182 81.9408 22.6858C81.9408 23.1533 82.1533 23.4083 82.5571 23.4083C82.9244 23.4007 83.289 23.3435 83.641 23.2383L83.8322 23.1958V21.8144L82.6634 21.9207Z" fill="black"/>
</g>
<defs>
<clipPath id="clip0_502_1081">
<rect width="85.008" height="25.9062" fill="white" transform="translate(0.991699 0.689941)"/>
</clipPath>
</defs>
</svg>
