<svg width="213" height="45" viewBox="0 0 213 45" fill="none" xmlns="http://www.w3.org/2000/svg">
<path d="M133.2 0.5H131.6V44.7H133.2V0.5Z" fill="#1F369B"/>
<path d="M18.5 15.2C18.7 15.2 18.9 15 18.9 14.8C18.9 14.6 18.7 14.4 18.5 14.4C18.3 14.4 18.1 14.6 18.1 14.8C18 15 18.2 15.2 18.5 15.2ZM21.3 12.3C21.6 12.3 21.9 12 21.9 11.7C21.9 11.4 21.6 11.1 21.3 11.1C21 11.1 20.7 11.4 20.7 11.7C20.7 12 20.9 12.3 21.3 12.3ZM49.4 0.600001H45.2V29.5H49.4V0.600001ZM7.8 40.5C7.8 41.4 7.7 42 7.5 42.3C7.2 42.8 6.5 43.6 5 43.6C3.9 43.6 3.2 43.2 2.8 42.8C2.3 42.3 2.2 41.8 2.2 40.5V35H0.8V40.5C0.8 41.2 0.8 42.3 1.3 43.1C2.1 44.3 3.6 44.8 5 44.8C6.1 44.8 7.2 44.5 8.1 43.8C9.2 42.8 9.2 41.5 9.2 40.5V35H7.8V40.5ZM80.8 36.2H84.2V44.6H85.6V36.2H89V35H80.8V36.2ZM74.7 34.9L70.5 44.6H71.9L73.1 41.8H77.3L78.6 44.6H80L75.6 34.9H74.7ZM73.7 40.5L75.2 37L76.8 40.5H73.7ZM92.1 44.6H93.5V35H92.1V44.6ZM101.7 34.9C98.3 34.9 96.4 37.3 96.4 39.9C96.4 42.6 98.5 44.8 101.6 44.8C104.8 44.8 107 42.6 107 39.8C107 37.2 105 34.9 101.7 34.9ZM104.6 42.3C103.9 43 102.8 43.4 101.7 43.4C99.6 43.4 97.9 42 97.9 39.8C97.9 38.2 99 36.1 101.8 36.1C104.4 36.1 105.6 38.1 105.6 39.7C105.6 40.6 105.2 41.7 104.6 42.3ZM117.5 35V42.5L110.9 35H109.8V44.6H111.1V37.2L117.7 44.6H118.9V35H117.5ZM86.2 15C86.2 7.2 80.2 0.200001 70.6 0.200001C60.7 0.200001 55.1 7.5 55.1 15.1C55.1 23.2 61.3 29.9 70.4 29.9C79.8 29.9 86.2 23.3 86.2 15ZM70.6 26C64.5 26 59.4 21.7 59.4 15.1C59.4 10.3 62.7 4.1 70.8 4.1C78.4 4.1 82 10.2 82 15C82 17.5 80.9 20.6 79.1 22.6C77.1 24.7 73.7 26 70.6 26ZM105.7 18.2L114.6 7V29.5H118.8V0.600001H114.9L105.3 12.5L95.6 0.600001H91.7V29.5H95.9V7L104.9 18.2H105.7ZM65.4 40C66.5 39.6 67 38.7 67 37.6C67 36.6 66.5 35.7 65.5 35.2C64.9 35 64.3 35 63.8 35H61.3V44.6H62.7V40.4H63.1C63.8 40.4 64.3 40.4 65.2 41.6C65.5 42 66.9 44.1 67.2 44.6H69C68.3 43.7 68.1 43.3 67.7 42.7C66.9 41.5 66.3 40.6 65.4 40ZM64.7 39.1C64.3 39.2 63.5 39.2 63.3 39.2H62.8V36.2H63.2C64.1 36.2 64.5 36.3 64.9 36.4C65.4 36.6 65.6 37.1 65.6 37.7C65.6 38.2 65.4 38.8 64.7 39.1ZM36.2 14.2C36.2 9.6 34.1 4.5 30.7 0.600001H27.6C28.4 1.3 29.5 2.6 29.5 2.6C32.4 5.9 34.2 10.3 34.2 14.3V14.4H29.3C28.5 6.7 22.4 0.600001 14.9 0.600001C6.9 0.600001 0.5 7.5 0.5 15.9C0.5 20.5 2.6 25.6 6 29.5H9.1C8.3 28.8 7.2 27.5 7.2 27.5C4.3 24.2 2.5 19.8 2.5 15.8V15.7H7.4C8.1 23.4 14.3 29.5 21.8 29.5C29.7 29.5 36.2 22.6 36.2 14.2ZM22.1 27.5V23.9C24.2 24 26 24.8 27.4 26.1C25.7 26.9 23.9 27.4 22.1 27.5ZM22.1 23.1V20.8H28.9C27.9 22.1 26.6 23.1 25.3 23.7C24.2 23.4 23.2 23.2 22.1 23.1ZM28 25.7C27.4 25.1 26.8 24.7 26.1 24.3C27.5 23.5 28.8 22.3 29.8 20.9H32.5C31.4 22.8 29.9 24.5 28 25.7ZM34.1 15.3C34 17 33.6 18.5 33 20H30.4C31.1 18.7 31.5 17.3 31.5 15.8C31.5 15.7 31.5 15.5 31.5 15.4H34.1V15.3ZM27.2 14.4H24.7C24.7 14.4 24.7 14.4 24.7 14.3C24.7 12.8 24.3 11.4 23.6 10.1H26.1C26.7 11.5 27.1 12.9 27.2 14.4ZM25.7 9.3H23.1C22.1 7.9 20.8 6.7 19.4 5.9C20.1 5.5 20.7 5.1 21.2 4.5C23.1 5.7 24.6 7.3 25.7 9.3ZM15.5 2.6C17.3 2.7 19 3.2 20.6 4C19.3 5.2 17.5 6 15.5 6.2V2.6ZM15.5 7C16.6 6.9 17.6 6.7 18.5 6.3C19.9 6.9 21.2 7.9 22.1 9.2H15.5V7ZM14.6 2.6V6.2C12.5 6.2 10.7 5.3 9.3 4C10.9 3.2 12.7 2.7 14.6 2.6ZM14.6 7V9.3H7.8C8.8 8 10.1 7 11.4 6.4C12.4 6.7 13.5 7 14.6 7ZM8.6 4.4C9.2 5 9.8 5.4 10.5 5.8C9.1 6.6 7.8 7.8 6.8 9.2H4.1C5.2 7.3 6.8 5.6 8.6 4.4ZM2.5 14.8C2.6 13.2 3 11.6 3.7 10.2H6.3C5.6 11.5 5.2 12.9 5.2 14.4C5.2 14.5 5.2 14.7 5.2 14.8H2.5ZM6 14.8C6 14.7 6 14.5 6 14.4C6 12.9 6.5 11.4 7.2 10.2H22.7C23.5 11.5 23.9 12.9 23.9 14.4C23.9 14.4 23.9 14.4 23.9 14.5V15.4H30.6C30.6 15.5 30.6 15.7 30.6 15.8C30.6 17.3 30.1 18.8 29.4 20H13.9C13.2 18.7 12.7 17.3 12.7 15.8V14.8H6ZM9.4 15.7H11.9C11.9 15.7 11.9 15.7 11.9 15.8C11.9 17.3 12.3 18.7 13 20H10.5C9.9 18.6 9.5 17.2 9.4 15.7ZM11 20.9H13.6C14.6 22.3 15.9 23.5 17.3 24.3C16.6 24.7 16 25.1 15.5 25.7C13.5 24.5 12 22.8 11 20.9ZM21.1 27.5C19.3 27.4 17.6 26.9 16 26.1C17.3 24.9 19.1 24.1 21.1 23.9V27.5ZM21.1 23.1C20 23.2 19 23.4 18.1 23.8C16.7 23.2 15.4 22.2 14.5 20.9H21.1V23.1ZM13.5 15.9C13.6 15.9 13.7 15.8 13.7 15.7L14.7 13.2L14.8 15.6L14.4 18.7C14.4 18.8 14.4 18.9 14.6 19H14.7C14.8 19 14.9 18.9 15 18.8L15.4 15.9H15.9L16.3 18.8C16.3 18.9 16.4 19 16.6 19H16.7C16.8 19 16.9 18.8 16.9 18.7L16.5 15.6L16.6 13.2L17.6 15.7H18L17.7 17.4C17.7 17.5 17.7 17.6 17.8 17.7C17.8 17.8 17.9 17.8 18 17.8V18.5C18 18.6 18.1 18.7 18.2 18.7C18.3 18.7 18.4 18.6 18.4 18.5V17.8H18.6V18.5C18.6 18.6 18.7 18.7 18.8 18.7C18.9 18.7 19 18.6 19 18.5V17.8C19.1 17.8 19.1 17.7 19.2 17.7C19.3 17.6 19.3 17.5 19.3 17.4L19 15.9H19.2L20.3 13.3L20.5 14.3C20.5 14.5 20.5 14.6 20.5 14.8L19.5 19.1H22.6L21.6 14.8C21.6 14.6 21.6 14.5 21.6 14.3L21.8 13.2L22.6 15.3C22.6 15.4 22.7 15.5 22.8 15.5H22.9C23 15.4 23.1 15.3 23 15.2L22.1 12.9C22.1 12.8 22 12.7 21.9 12.7H20.1C20 12.7 19.9 12.8 19.9 12.9L19 15.4H17.9L16.8 12.7C16.8 12.6 16.7 12.5 16.6 12.5H14.8C14.7 12.5 14.6 12.6 14.6 12.7L13.4 15.5C13.4 15.6 13.4 15.8 13.5 15.9ZM20.7 42.5L14.1 35H13V44.6H14.3V37.2L20.9 44.6H22.1V35H20.8V42.5H20.7ZM44.1 44.6H45.5V35H44.1V44.6ZM54.3 41.1H56.2V43.1C55.3 43.4 54.8 43.5 54.1 43.5C51.7 43.5 50.1 41.9 50.1 39.8C50.1 37.5 52 36.1 53.9 36.1C54.4 36.1 55.8 36.2 57.4 37.1V35.7C56.3 35.3 55.3 34.9 53.9 34.9C50.5 34.9 48.6 37.4 48.6 39.9C48.6 42.1 50.2 44.8 54 44.8C55.6 44.8 56.9 44.3 57.6 44V39.9H54.3V41.1ZM35.6 38.9L32.3 34.9H31V44.5H32.4V37L35.5 40.7H35.8L38.8 37V44.5H40.2V35H38.9L35.6 38.9ZM15.6 12.3C15.9 12.3 16.2 12 16.2 11.7C16.2 11.4 15.9 11.1 15.6 11.1C15.3 11.1 15 11.4 15 11.7C15.1 12 15.3 12.3 15.6 12.3Z" fill="#1F369C"/>
<path d="M148.1 17.4C148.7 17.4 149.3 17.5 149.9 17.7C150.9 18.1 151.5 19.1 151.5 20.2C151.5 21.3 150.9 22.3 149.8 22.7C150.8 23.5 151.5 24.4 152.1 25.5C152.5 26.2 152.8 26.5 153.5 27.5H151.8C151.5 27 150 24.8 149.7 24.3C148.7 23 148.2 23 147.5 23H147V27.5H145.5V17.4H148.1ZM147 18.6V21.8H147.6C148.1 21.8 148.6 21.8 149 21.6C149.6 21.4 150 20.8 150 20.1C150 19.5 149.7 19 149.2 18.7C148.6 18.5 148.1 18.4 147.5 18.5L147 18.6Z" fill="#0033A0"/>
<path d="M164.6 22.5C164.6 25.4 162.3 27.8 159.3 27.8C159.2 27.8 159.1 27.8 159 27.8C156.1 27.8 153.8 25.4 153.8 22.5C153.8 19.6 156.2 17.3 159.1 17.3C162 17.2 164.5 19.4 164.6 22.3C164.6 22.3 164.6 22.4 164.6 22.5ZM155.2 22.5C155.2 24.6 156.9 26.3 159 26.4C159.1 26.4 159.1 26.4 159.2 26.4C160.3 26.4 161.4 26 162.2 25.2C162.8 24.4 163.2 23.5 163.2 22.5C163.2 20.3 161.4 18.5 159.2 18.5C157 18.5 155.1 20.3 155.2 22.5Z" fill="#0033A0"/>
<path d="M176.1 27.6H174.6V19.6L171.5 23.6H171.2L168 19.6V27.6H166.5V17.4H167.9L171.3 21.6L174.7 17.4H176.1V27.6Z" fill="#0033A0"/>
<path d="M187.3 27.6H185.8L184.4 24.6H180L178.7 27.6H177.2L181.6 17.3H182.6L187.3 27.6ZM183.8 23.3L182.2 19.6L180.7 23.3H183.8Z" fill="#0033A0"/>
<path d="M198 27.6H196.7L189.9 19.7V27.6H188.5V17.4H189.7L196.6 25.3V17.4H198V27.6Z" fill="#0033A0"/>
<path d="M201.8 27.6H200.3V17.4H201.8V27.6Z" fill="#0033A0"/>
<path d="M213 27.6H211.5L210.1 24.6H205.7L204.4 27.6H203L207.4 17.3H208.4L213 27.6ZM209.6 23.3L208 19.6L206.5 23.3H209.6Z" fill="#0033A0"/>
</svg>
