<svg xmlns="http://www.w3.org/2000/svg" viewBox="0 0 1303.14 315.39"><defs><style>.cls-1{fill:#004aad;}.cls-2{fill:#1c1080;}</style></defs><g id="Layer_2" data-name="Layer 2"><g id="Layer_1-2" data-name="Layer 1"><circle class="cls-1" cx="157.69" cy="157.69" r="157.69"/><path class="cls-2" d="M426.3,130.53a55.84,55.84,0,0,1-13.76-4V115.59a75.31,75.31,0,0,0,30.21,6.07q13.47,0,19.82-4.29t6.36-12.86q0-6.06-2.62-9.61a20.29,20.29,0,0,0-7.55-6q-4.93-2.43-17.05-7.32-14.82-5.91-21.47-12.93t-6.66-17.81A23.5,23.5,0,0,1,417.85,37a27.49,27.49,0,0,1,12-9.39,45.26,45.26,0,0,1,17.95-3.32,81.29,81.29,0,0,1,14.88,1.25,61.11,61.11,0,0,1,13.09,4.07V40.05a65.39,65.39,0,0,0-26.33-5.47q-12,0-18.1,4.29a13.79,13.79,0,0,0-6.13,12,15.26,15.26,0,0,0,2.54,8.86,23.72,23.72,0,0,0,8,6.81,117,117,0,0,0,15,6.8,116.1,116.1,0,0,1,16.9,7.76,26.72,26.72,0,0,1,9.5,9.16q3.38,5.55,3.37,14.27,0,13.15-9.43,20.32T443.35,132A98.44,98.44,0,0,1,426.3,130.53Z"/><path class="cls-2" d="M498.55,26.45h38.74q16.46,0,25.66,7.69t9.2,22.77q0,15.23-9.13,22.76t-25.73,7.54H510.22v42.58H498.55Zm37.84,51q11.22,0,17.66-4.51t6.43-16q0-11.69-6.43-16.19t-17.66-4.51H510.22V77.46Z"/><path class="cls-2" d="M587.1,26.45h40.39q16.31,0,24.76,7.54t8.45,22.32A28.42,28.42,0,0,1,654,75.38q-6.64,7.84-18.47,9.91l24.83,44.5H648.29L623.75,85.88h-25v43.91H587.1ZM626,76.12q10.77,0,16.9-5T649,56.31q0-10.94-6.06-15.52c-4-3-9.7-4.58-17-4.58H598.77V76.12Z"/><path class="cls-2" d="M678.8,26.45h11.67V129.79H678.8Z"/><path class="cls-2" d="M712.23,131.41a26.72,26.72,0,0,1-6.65-1.62V119.73a26.43,26.43,0,0,0,6,1.41,52.18,52.18,0,0,0,6.81.52q16,0,16-15.67V26.45h11.66v80.42q0,12-7,18.56T720.53,132A61.05,61.05,0,0,1,712.23,131.41Z"/><path class="cls-2" d="M766.46,26.45h11.66V129.79H766.46Z"/><path class="cls-2" d="M799.21,26.45h11.22L868,110.13V26.45h11.67V129.79H868.47L810.88,46v83.82H799.21Z"/><path class="cls-2" d="M409.21,173.62h32.31q16.75,0,29.1,6.21a44,44,0,0,1,18.92,17.74q6.58,11.52,6.58,27.2,0,25.86-15,39t-42,13.16H409.21Zm29.17,93.57q23.64,0,34.86-10.71t11.21-31.71q0-19.52-10.92-30.46t-32.16-10.93H420.88v83.81Z"/><path class="cls-2" d="M514.07,173.62h67.32v9.76H525.74v37h41.73v9.76H525.74v37.1h55.65V277H514.07Z"/><path class="cls-2" d="M666,268.82Q655.43,258.47,655.43,240V173.62H667.1v67.26q0,14,7.93,21t22.13,6.95q14.22,0,22.14-6.95t7.93-21V173.62H738.9V240q0,18.48-10.55,28.83t-31.19,10.35Q676.52,279.17,666,268.82Z"/><path class="cls-2" d="M759.09,173.62h40.39q16.31,0,24.76,7.54t8.45,22.32A28.44,28.44,0,0,1,826,222.55q-6.66,7.83-18.47,9.9L832.39,277H820.27l-24.53-43.9h-25V277H759.09ZM798,223.29q10.77,0,16.91-5T821,203.48Q821,192.55,815,188t-17-4.58H770.76v39.91Z"/><path class="cls-2" d="M872,272.52a48.35,48.35,0,0,1-19.53-18.85q-7-12.19-7-28.31t7-28.31A48.78,48.78,0,0,1,872,178.13a58.72,58.72,0,0,1,28.34-6.73q21.69,0,35.9,11.23v11.24q-13.46-12-35-12a47.7,47.7,0,0,0-22.74,5.32,38.87,38.87,0,0,0-15.7,15.15q-5.68,9.84-5.69,23t5.69,23a39,39,0,0,0,15.63,15.15,46.92,46.92,0,0,0,22.51,5.32,59.19,59.19,0,0,0,14.21-1.7,39.06,39.06,0,0,0,11.37-4.51V230.83h-22v-9.76h33.66v46.42a47.22,47.22,0,0,1-16.68,8.87,73.63,73.63,0,0,1-21.17,2.81A59.37,59.37,0,0,1,872,272.52Z"/><path class="cls-2" d="M956.1,173.62h67.31v9.76H967.77v37h41.73v9.76H967.77v37.1h55.64V277H956.1Z"/><path class="cls-2" d="M1041.36,173.62h11.22l57.59,83.67V173.62h11.67V277h-11.22L1053,193.13V277h-11.67Z"/><path class="cls-2" d="M1170.31,183.38H1136.8v-9.76h78.68v9.76H1182V277h-11.66Zm-.45,102.88H1182l-13.61,29.13h-10.47Z"/><path class="cls-2" d="M1250.49,173.62h10.92L1303.14,277h-12L1280,249.31h-48.16L1220.72,277h-12Zm-9.73-11.75a18.23,18.23,0,0,1-5.68-13.83h9a10.73,10.73,0,0,0,3.22,8.21q3.21,3,8.75,3t8.75-3A10.76,10.76,0,0,0,1268,148h8.82a18.23,18.23,0,0,1-5.68,13.83q-5.69,5.38-15.11,5.39T1240.76,161.87Zm35.9,77.68-20.79-52.63-20.64,52.63Z"/><rect class="cls-2" x="409.21" y="288.81" width="893.93" height="11.26"/></g></g></svg>