<svg width="2280" height="540" viewBox="0 0 2280 540" fill="none" xmlns="http://www.w3.org/2000/svg">
<path fill-rule="evenodd" clip-rule="evenodd" d="M330.401 367.494C336.796 367.494 336.004 363.836 336.004 357.04V324.058C336.004 317.249 335.33 315.07 339.234 315.07C352.8 315.07 356.523 313.838 356.523 301.724V179.108C356.523 145.724 332.931 151.236 326.264 139.044C316.835 122.547 343.916 122.547 334.098 86.789C331.608 78.7088 325.239 73.6765 313.022 73.6765C300.804 73.6765 294.423 78.7218 291.933 86.789C282.102 122.534 309.222 122.534 299.754 139.044C293.074 151.236 269.534 145.724 269.534 179.108V301.711C269.534 313.838 273.192 315.057 286.823 315.057C290.662 315.057 290.027 317.236 290.027 324.045V357.027C290.027 363.81 289.222 367.481 295.655 367.481L330.401 367.494V367.494ZM223.064 101.484C211.028 114.311 191.949 144.258 204.374 169.16C229.678 178.887 227.759 89.0198 259.223 90.5762C274.826 104.986 254.593 147.384 248.355 166.06C240.547 189.03 234.36 237.251 219.549 260.584C207.137 280.039 216.462 341.113 212.532 362.124C202.053 372.63 173.623 365.224 161.587 363.278C161.587 339.194 158.448 320.141 154.57 281.621C154.194 273.839 145.997 154.777 152.612 140.393C166.23 110.433 240.521 53.2492 250.676 42.3546C259.612 32.6143 291.09 0.31958 303.178 0.31958C311.712 6.16894 306.68 19.8002 304.721 25.2085C292.711 55.1817 240.547 84.7528 223.064 101.484V101.484ZM404.329 101.484C415.976 114.311 435.054 144.258 422.993 169.16C397.325 178.887 399.258 89.0198 367.767 90.5762C352.593 104.986 372.787 147.384 379.038 166.06C386.807 189.03 393.032 237.251 407.818 260.584C419.906 280.039 410.918 341.113 414.42 362.124C425.301 372.63 453.342 365.224 465.754 363.278C465.754 339.194 468.503 320.141 472.368 281.621C473.16 273.839 481.344 154.777 474.716 140.393C461.124 110.433 386.794 53.2492 376.703 42.3546C367.352 32.6143 336.238 0.31958 324.176 0.31958C315.214 6.16894 320.674 19.8002 322.62 25.2085C334.72 55.1817 386.82 84.7528 404.329 101.484V101.484ZM115 61.1478C108.359 67.3603 93.5476 71.6533 83.3923 85.2845C79.5143 77.8918 89.6307 59.9805 101.706 49.4361C110.681 42.0044 128.216 29.9425 133.287 28.7752C137.204 37.7633 123.183 51.3945 115 61.1478Z" fill="#1879BF"/>
<path fill-rule="evenodd" clip-rule="evenodd" d="M94.3387 109.849C83.029 120.394 70.9672 124.687 55.3386 143.778C49.9224 125.272 49.2489 105.701 53.3802 86.8669C58.8664 68.9427 67.8025 49.06 83.029 42.8086C79.9293 52.9509 74.8062 66.9972 73.6389 86.0887C67.0373 112.21 63.1334 113.001 64.7157 116.49C66.2462 116.49 74.8062 102.846 85.3636 92.3272C97.8146 79.8503 113.404 77.1006 123.534 69.7208C121.99 74.792 113.041 90.7578 94.3387 109.849V109.849Z" fill="#1879BF"/>
<path fill-rule="evenodd" clip-rule="evenodd" d="M39.3599 217.836C24.1982 190.547 22.6029 170.652 21.4357 147.656C22.2268 131.664 30.0087 94.6488 41.6944 89.2015C38.1926 122.702 47.1677 125.841 43.6399 153.506C43.6399 155.062 39.749 183.907 39.749 185.45C44.4311 184.685 40.1381 158.94 93.5476 121.937C81.8488 142.183 87.2961 148.434 66.2592 175.334C41.6944 199.509 38.1926 223.296 39.3599 217.836V217.836Z" fill="#1879BF"/>
<path fill-rule="evenodd" clip-rule="evenodd" d="M60.8248 243.555C49.4893 259.935 51.4477 268.132 48.737 275.914C21.8118 260.312 -8.57637 198.355 2.70733 167.565C9.72397 190.936 19.4772 196.008 26.4939 215.488C38.5817 244.748 36.6492 253.723 44.4311 260.325C42.8358 245.137 47.9459 227.2 53.0041 213.945C60.4358 202.661 66.2462 187.824 71.7324 182.739C77.5429 204.204 73.2758 221.752 60.8248 243.555V243.555Z" fill="#1879BF"/>
<path fill-rule="evenodd" clip-rule="evenodd" d="M84.9875 296.562C84.9875 320.362 80.6686 330.867 78.7491 348.415C32.3432 333.228 8.1676 280.207 8.1676 254.099C22.2268 286.07 42.8488 285.668 69.774 330.867C72.1085 313.747 65.0919 326.6 64.3007 294.254C65.0919 260.325 72.1085 259.157 73.2758 238.133C81.8488 247.472 84.9875 284.889 84.9875 296.562Z" fill="#1879BF"/>
<path fill-rule="evenodd" clip-rule="evenodd" d="M123.547 364.005C127.087 381.566 128.644 402.214 131.354 417.401C104.844 407.674 98.2038 415.067 66.6483 395.197C52.2519 387.402 26.4939 354.654 28.0762 331.269C59.2296 365.963 64.7158 362.046 79.9294 374.912C93.9237 386.209 105.207 403.005 115.389 400.657C116.128 391.293 92.3933 371.008 95.4931 312.554C101.719 319.181 118.865 345.691 123.547 364.005V364.005Z" fill="#1879BF"/>
<path fill-rule="evenodd" clip-rule="evenodd" d="M176.165 407.674C184.362 419.36 182.429 424.431 203.44 448.594C198.356 450.954 168.396 458.71 148.5 459.514C135.271 459.514 88.4893 447.05 72.8997 415.067C99.7471 429.489 100.175 425.987 136.036 433.782C161.743 439.619 180.082 447.803 187.098 447.037C185.542 443.523 165.646 435.339 152.028 418.167C138.358 399.853 141.497 379.205 129.396 363.979C137.593 361.67 169.524 399.101 176.165 407.674ZM510.201 61.148C516.453 67.3605 531.666 71.6535 541.393 85.2847C545.673 77.8919 535.168 59.9807 523.093 49.4363C514.533 42.0046 496.985 29.9427 491.512 28.7754C487.634 37.7634 501.641 51.3947 510.201 61.148Z" fill="#1879BF"/>
<path fill-rule="evenodd" clip-rule="evenodd" d="M530.875 109.849C541.783 120.394 553.87 124.687 569.473 143.778C574.896 125.273 575.57 105.701 571.432 86.8669C566.373 68.9427 557.022 49.06 541.796 42.8086C545.31 52.9509 549.992 66.9972 551.16 86.0887C557.787 112.21 561.691 113.001 560.148 116.49C558.578 116.49 549.992 102.846 539.487 92.3272C527.386 79.8503 511.784 77.1006 501.291 69.7208C502.821 74.792 512.186 90.7578 530.875 109.849V109.849Z" fill="#1879BF"/>
<path fill-rule="evenodd" clip-rule="evenodd" d="M585.478 217.836C601.041 190.547 602.209 170.652 603.389 147.656C602.598 131.664 594.829 94.6488 583.532 89.2015C586.632 122.702 577.683 125.841 581.561 153.506C581.561 155.062 585.089 183.907 585.089 185.45C580.796 184.685 584.7 158.94 531.679 121.937C542.989 142.183 537.503 148.434 558.578 175.334C583.519 199.509 586.619 223.296 585.478 217.836V217.836Z" fill="#1879BF"/>
<path fill-rule="evenodd" clip-rule="evenodd" d="M564.415 243.555C575.322 259.935 573.364 268.132 576.114 275.914C603 260.312 633.777 198.355 622.104 167.565C615.477 190.936 605.347 196.008 598.733 215.488C586.243 244.748 588.201 253.723 580.796 260.325C582.352 245.137 576.879 227.2 571.834 213.945C564.804 202.661 558.578 187.824 553.105 182.739C547.645 204.204 551.536 221.752 564.415 243.555V243.555Z" fill="#1879BF"/>
<path fill-rule="evenodd" clip-rule="evenodd" d="M539.837 296.562C539.837 320.362 544.506 330.867 546.478 348.415C592.468 333.228 617.033 280.207 617.033 254.099C602.585 286.07 582.339 285.668 555.077 330.867C552.716 313.747 559.733 326.6 560.524 294.254C559.733 260.325 552.716 259.157 551.536 238.133C542.976 247.472 539.837 284.889 539.837 296.562Z" fill="#1879BF"/>
<path fill-rule="evenodd" clip-rule="evenodd" d="M501.265 364.005C497.75 381.566 496.596 402.214 493.859 417.401C519.967 407.674 526.569 415.067 558.163 395.197C572.573 387.402 598.707 354.654 597.125 331.269C565.958 365.963 560.122 362.046 545.297 374.912C531.264 386.209 519.591 403.005 509.41 400.657C508.658 391.293 532.444 371.008 529.695 312.554C523.106 319.181 505.921 345.691 501.265 364.005V364.005Z" fill="#1879BF"/>
<path fill-rule="evenodd" clip-rule="evenodd" d="M448.634 407.674C440.839 419.36 442.784 424.431 421.332 448.594C426.793 450.954 456.442 458.71 476.726 459.514C489.566 459.514 536.348 447.05 551.899 415.067C525.026 429.489 524.637 425.987 488.775 433.782C463.043 439.619 445.119 447.803 437.713 447.037C439.27 443.522 459.554 435.339 472.809 418.167C486.428 399.853 483.328 379.205 495.805 363.979C487.219 361.67 455.274 399.101 448.634 407.674V407.674ZM245.955 517.606L238.147 513.702C238.147 513.702 287.679 453.276 372.657 457.958C457.622 462.627 451.772 482.51 497.387 479.41C502.445 479.021 493.47 485.622 493.47 485.622C493.47 485.622 449.062 502.755 394.109 484.053C339.506 465.351 304.008 454.041 245.955 517.606Z" fill="#1879BF"/>
<path fill-rule="evenodd" clip-rule="evenodd" d="M380.426 517.606L388.259 513.702C388.259 513.702 339.091 453.276 254.126 457.958C168.785 462.627 174.609 482.51 129.02 479.41C123.975 479.021 132.911 485.622 132.911 485.622C132.911 485.622 177.358 502.755 232.337 484.053C287.264 465.351 322.749 454.041 380.426 517.606ZM768.948 431.876H739.286V413.575H820.347V431.876H790.698V512.522H768.948V431.876V431.876ZM827.13 413.575H846.831V450.863H847.233C849.445 447.285 852.519 444.318 856.174 442.236C859.829 440.153 863.948 439.022 868.154 438.944C889.087 438.944 894.353 450.708 894.353 468.463V512.509H874.665V472.043C874.665 460.279 871.215 454.443 862.071 454.443C851.397 454.443 846.831 460.396 846.831 474.974V512.522H827.13V413.575V413.575ZM922.458 481.485C923.016 493.949 929.125 499.643 940.058 499.643C947.97 499.643 954.325 494.792 955.57 490.343H972.898C967.359 507.256 955.57 514.467 939.371 514.467C916.79 514.467 902.783 498.942 902.783 476.777C902.783 455.299 917.633 438.944 939.371 438.944C963.767 438.944 975.543 459.436 974.156 481.472H922.458V481.485ZM954.48 469.008C952.678 459.047 948.385 453.781 938.813 453.781C926.362 453.781 922.743 463.483 922.458 469.008H954.48ZM1100.4 475.104C1100.4 501.847 1084.58 514.869 1058.13 514.869C1031.53 514.869 1016 501.977 1016 475.104V413.575H1037.76V475.104C1037.76 485.908 1040.53 496.582 1058.13 496.582C1073.65 496.582 1078.64 489.799 1078.64 475.104V413.575H1100.4V475.104ZM1114.93 413.575H1136.55L1177.83 479.955H1178.13V413.575H1198.51V512.522H1176.74L1135.58 446.298H1135.29V512.522H1114.93V413.575V413.575ZM1264.59 430.475H1288.4C1298.1 430.475 1303.39 434.638 1303.39 444.21C1303.39 454.209 1298.1 458.36 1288.4 458.36H1264.59V430.475V430.475ZM1242.84 512.522H1264.6V473.872H1286.36C1297.31 473.872 1301.3 478.437 1302.85 488.839C1303.94 496.724 1303.65 506.296 1306.3 512.522H1328.06C1324.18 506.971 1324.34 495.337 1323.91 489.098C1323.22 479.124 1320.16 468.736 1309.5 465.973V465.688C1320.45 461.252 1325.16 452.51 1325.16 440.903C1325.16 425.935 1313.96 413.588 1296.21 413.588H1242.86V512.522H1242.84V512.522ZM1354.55 469.008C1354.81 463.483 1358.4 453.781 1370.86 453.781C1380.43 453.781 1384.74 459.047 1386.54 469.008H1354.55ZM1406.19 481.485C1407.58 459.449 1395.8 438.957 1371.41 438.957C1349.64 438.957 1334.83 455.312 1334.83 476.79C1334.83 498.955 1348.81 514.48 1371.41 514.48C1387.64 514.48 1399.4 507.256 1404.95 490.356H1387.64C1386.37 494.805 1379.99 499.656 1372.12 499.656C1361.17 499.656 1355.08 493.962 1354.55 481.498H1406.19V481.485V481.485ZM1419.64 454.041H1407.86V440.89H1419.64V435.326C1419.64 422.719 1427.54 413.562 1443.61 413.562C1447.09 413.562 1450.7 413.977 1454.02 414.146V428.815C1451.63 428.541 1449.21 428.406 1446.8 428.413C1441.56 428.413 1439.33 430.618 1439.33 436.597V440.89H1452.91V454.041H1439.33V512.522H1419.64V454.041ZM1526.21 512.522H1507.5V502.535H1507.07C1504.74 506.228 1501.51 509.264 1497.68 511.353C1493.85 513.442 1489.54 514.514 1485.18 514.467C1464.26 514.467 1459 502.677 1459 484.935V440.89H1478.67V481.329C1478.67 493.119 1482.14 498.929 1491.29 498.929C1501.95 498.929 1506.51 492.963 1506.51 478.411V440.877H1526.23V512.522H1526.21ZM1571.5 495.609C1559.44 495.609 1555.56 484.377 1555.56 474.131C1555.56 463.483 1560.4 453.781 1571.5 453.781C1584.27 453.781 1588.27 464.17 1588.27 475.804C1588.27 486.05 1582.76 495.609 1571.5 495.609V495.609ZM1606.98 440.903H1588.29V450.461H1588.01C1583.33 442.122 1576.11 438.944 1566.68 438.944C1546.56 438.944 1535.93 455.857 1535.93 474.403C1535.93 494.092 1545.05 510.433 1566.52 510.433C1575.11 510.433 1583.7 506.828 1588 499.344H1588.27V508.773C1588.4 519.032 1583.41 526.516 1572.46 526.516C1565.55 526.516 1559.6 524.026 1557.79 516.685H1538.24C1539.2 533.027 1555.72 539.667 1569.83 539.667C1602.81 539.667 1606.96 519.72 1606.96 507.943V440.903H1606.98ZM1636.51 469.008C1636.77 463.483 1640.39 453.781 1652.85 453.781C1662.42 453.781 1666.7 459.047 1668.5 469.008H1636.51V469.008ZM1688.19 481.485C1689.58 459.449 1677.8 438.957 1653.41 438.957C1631.67 438.957 1616.83 455.312 1616.83 476.79C1616.83 498.955 1630.81 514.48 1653.41 514.48C1669.62 514.48 1681.4 507.256 1686.92 490.356H1669.62C1668.38 494.805 1661.99 499.656 1654.12 499.656C1643.17 499.656 1637.05 493.962 1636.52 481.498H1688.19V481.485V481.485ZM1713.57 469.008C1713.83 463.483 1717.43 453.781 1729.89 453.781C1739.46 453.781 1743.77 459.047 1745.55 469.008H1713.57ZM1765.22 481.485C1766.61 459.449 1754.83 438.957 1730.44 438.957C1708.67 438.957 1693.86 455.312 1693.86 476.79C1693.86 498.955 1707.84 514.48 1730.44 514.48C1746.67 514.48 1758.45 507.256 1763.98 490.356H1746.67C1745.4 494.805 1739.02 499.656 1731.15 499.656C1720.18 499.656 1714.11 493.962 1713.57 481.498H1765.22V481.485V481.485ZM1844.76 437.958H1845.04L1857.53 474.274H1831.89L1844.76 437.958V437.958ZM1796.4 512.522H1818.44L1826.19 490.512H1863.21L1870.68 512.522H1893.27L1856.26 413.575H1833.96L1796.4 512.522V512.522ZM1930.13 495.609C1918.07 495.609 1914.19 484.377 1914.19 474.131C1914.19 463.483 1919.03 453.781 1930.13 453.781C1942.87 453.781 1946.9 464.17 1946.9 475.804C1946.9 486.05 1941.35 495.609 1930.13 495.609V495.609ZM1965.59 440.903H1946.9V450.461H1946.63C1941.92 442.122 1934.7 438.944 1925.29 438.944C1905.18 438.944 1894.52 455.857 1894.52 474.403C1894.52 494.092 1903.66 510.433 1925.14 510.433C1933.7 510.433 1942.34 506.828 1946.62 499.344H1946.89V508.773C1947.02 519.032 1942.02 526.516 1931.08 526.516C1924.16 526.516 1918.19 524.026 1916.38 516.685H1896.82C1897.81 533.027 1914.31 539.667 1928.46 539.667C1961.41 539.667 1965.56 519.72 1965.56 507.943V440.903H1965.59V440.903ZM1995.11 469.008C1995.38 463.483 1998.99 453.781 2011.48 453.781C2021.02 453.781 2025.33 459.047 2027.11 469.008H1995.11ZM2046.81 481.485C2048.17 459.449 2036.39 438.957 2012.02 438.957C1990.23 438.957 1975.45 455.312 1975.45 476.79C1975.45 498.955 1989.43 514.48 2012.02 514.48C2028.23 514.48 2040.01 507.256 2045.54 490.356H2028.23C2026.99 494.805 2020.58 499.656 2012.71 499.656C2001.76 499.656 1995.67 493.962 1995.11 481.498H2046.81V481.485ZM2055.39 440.903H2074.08V450.876H2074.48C2079.48 442.822 2088.09 438.957 2096.39 438.957C2117.28 438.957 2122.59 450.721 2122.59 468.476V512.522H2102.9V472.056C2102.9 460.292 2099.43 454.456 2090.28 454.456C2079.62 454.456 2075.03 460.409 2075.03 474.987V512.535H2055.37V440.903H2055.39V440.903ZM2183.26 466.103C2182.04 458.062 2176.91 453.781 2168.75 453.781C2156.13 453.781 2151.95 466.518 2151.95 477.049C2151.95 487.321 2155.99 499.643 2168.32 499.643C2177.46 499.643 2182.7 493.832 2183.98 485.091H2202.95C2200.47 504.065 2187.3 514.48 2168.45 514.48C2146.84 514.48 2132.28 499.228 2132.28 477.75C2132.28 455.429 2145.6 438.957 2168.85 438.957C2185.78 438.957 2201.3 447.828 2202.52 466.116H2183.26V466.103ZM2246.9 521.523C2242.57 533.027 2235.82 537.722 2222.21 537.722C2218.2 537.722 2214.18 537.462 2210.17 537.047V520.822C2213.92 521.095 2217.77 521.652 2221.68 521.523C2228.44 520.822 2230.67 513.741 2228.44 508.086L2203.24 440.89H2224.31L2240.52 489.941H2240.8L2256.42 440.89H2276.81L2246.9 521.523V521.523ZM1006.96 253.178C1006.96 334.408 963.053 373.395 873.601 373.395C784.136 373.395 739.818 334.408 739.818 253.178V73.4691H830.075V233.062C830.075 263.009 830.075 300.349 874.003 300.349C916.674 300.349 916.674 263.009 916.674 233.062V73.4691H1006.94V253.178H1006.96V253.178ZM1061.09 73.4691H1153.41L1238.75 230.183H1239.57V73.4691H1324.91V366.404H1237.13L1147.25 206.396H1146.45V366.404H1061.09V73.4691V73.4691ZM1380.3 73.4691H1470.56V175.217H1555.12V73.4691H1645.38V366.404H1555.12V250.299H1470.56V366.404H1380.3V73.4691V73.4691ZM1876.37 182.61C1874.72 171.923 1866.51 139.524 1829.17 139.524C1786.89 139.524 1773.34 180.534 1773.34 219.937C1773.34 259.326 1786.89 300.362 1829.17 300.362C1859.52 300.362 1871.43 279.027 1876.77 251.531H1965.38C1965.38 310.608 1917.38 373.395 1831.64 373.395C1736.87 373.395 1683.1 306.51 1683.1 219.937C1683.1 127.618 1741.38 66.4913 1831.64 66.4913C1912.04 66.8804 1956.39 109.149 1964.18 182.597H1876.37V182.61V182.61ZM2093.39 143.182H2135.68C2170.12 143.182 2180.38 153.856 2180.38 172.351C2180.38 198.588 2157.41 201.481 2140.62 201.481H2093.39V143.182ZM2003.14 366.404H2093.39V264.254H2141.42C2177.11 264.254 2179.54 293.397 2182.06 321.321C2183.27 336.496 2184.9 351.671 2189.42 366.417H2279.71C2271.47 352.89 2271.09 318.014 2269.82 303.669C2266.55 267.134 2251.38 240.053 2226.74 230.624C2256.71 219.535 2270.67 187.538 2270.67 157.176C2270.67 101.756 2226.33 73.4821 2175.07 73.4821H2003.14V366.404V366.404Z" fill="#1879BF"/>
</svg>
